<?xml version="1.0" standalone="no"?><!DOCTYPE svg PUBLIC "-//W3C//DTD SVG 1.1//EN" "http://www.w3.org/Graphics/SVG/1.1/DTD/svg11.dtd"><svg t="1523600830916" class="icon" style="" viewBox="0 0 1024 1024" version="1.1" xmlns="http://www.w3.org/2000/svg" p-id="1989" xmlns:xlink="http://www.w3.org/1999/xlink" width="200" height="200"><defs><style type="text/css"></style></defs><path d="M512 63.715556c-18.204444 0-34.133333 0-50.062222 2.275555-40.96 4.551111-79.644444 15.928889-116.053334 29.582222 0 0 304.924444 300.373333 311.751112 311.751111v-318.577777c-47.786667-15.928889-95.573333-25.031111-145.635556-25.031111z m318.577778 131.982222c-11.377778-11.377778-25.031111-22.755556-38.684445-34.133334-31.857778-25.031111-65.991111-45.511111-104.675555-61.44 0 0 2.275556 427.804444 0 441.457778l227.555555-227.555555c-20.48-43.235556-50.062222-84.195556-84.195555-118.328889z m100.124444 154.737778S630.328889 655.36 618.951111 662.186667h320.853333c15.928889-45.511111 25.031111-95.573333 25.031112-143.36 0-18.204444 0-34.133333-2.275556-50.062223-6.826667-43.235556-18.204444-81.92-31.857778-118.328888zM484.693333 696.32l227.555556 227.555556c43.235556-22.755556 84.195556-50.062222 118.328889-84.195556 40.96-40.96 72.817778-88.746667 95.573333-141.084444 0-2.275556-427.804444 0-441.457778-2.275556z m-118.328889-72.817778v320.853334c63.715556 20.48 129.706667 29.582222 195.697778 20.48 40.96-4.551111 79.644444-13.653333 116.053334-29.582223 2.275556 2.275556-302.648889-300.373333-311.751112-311.751111z m-31.857777-131.982222l-227.555556 227.555556c4.551111 9.102222 9.102222 18.204444 13.653333 25.031111 27.306667 50.062222 65.991111 93.297778 109.226667 127.431111 31.857778 25.031111 65.991111 45.511111 104.675556 61.44 0 0-2.275556-427.804444 0-441.457778z m-257.137778-91.022222c-11.377778 38.684444-15.928889 77.368889-15.928889 116.053333 0 18.204444 0 34.133333 2.275556 50.062222 4.551111 40.96 13.653333 79.644444 29.582222 116.053334 0 0 300.373333-304.924444 311.751111-311.751111H84.195556c-2.275556 11.377778-4.551111 20.48-6.826667 29.582222z m209.351111-273.066667c-34.133333 20.48-65.991111 43.235556-93.297778 70.542222-40.96 40.96-72.817778 88.746667-95.573333 141.084445 0 0 427.804444-2.275556 441.457778 0l-227.555556-227.555556c-9.102222 6.826667-18.204444 11.377778-25.031111 15.928889z m0 0" fill="" p-id="1990"></path></svg>