<?xml version="1.0" standalone="no"?><!DOCTYPE svg PUBLIC "-//W3C//DTD SVG 1.1//EN" "http://www.w3.org/Graphics/SVG/1.1/DTD/svg11.dtd"><svg t="1523692536263" class="icon" style="" viewBox="0 0 1024 1024" version="1.1" xmlns="http://www.w3.org/2000/svg" p-id="11256" xmlns:xlink="http://www.w3.org/1999/xlink" width="200" height="200"><defs><style type="text/css"></style></defs><path d="M512 62.784c-123.712 0-224 100.288-224 224s100.288 224 224 224c123.712 0 224-100.288 224-224S635.712 62.784 512 62.784zM512 446.784c-88.352 0-160-71.648-160-160s71.648-160 160-160c88.352 0 160 71.648 160 160S600.384 446.784 512 446.784z" p-id="11257"></path><path d="M959.328 864.992C942.208 633.184 748.16 449.344 512 449.344c-246.528 0-446.4 199.136-447.872 445.344C64.128 895.104 64 895.552 64 896c0 0.16 0.032 0.288 0.032 0.448C64.032 896.736 64 897.024 64 897.344l0.16 0.128C64.96 932.128 93.152 960 128 960c1.184 0 2.304-0.288 3.488-0.352L131.872 960l1.696 0 668.992 0c18.048 0 32.672-14.336 32.672-32s-14.624-32-32.672-32l-643.2 0C128 896 119.328 897.344 133.92 832.608c30.816-181.184 188.128-319.264 378.08-319.264 200.832 0 365.376 154.24 382.304 350.656l-0.192 0c0.896 10.24 1.696 20.544 1.76 31.008L896 895.008l0 35.2 0.448 0C897.632 946.784 911.104 960 928 960s30.368-13.216 31.552-29.792L960 930.208l-0.832-65.184" p-id="11258"></path></svg>