<?xml version="1.0" standalone="no"?><!DOCTYPE svg PUBLIC "-//W3C//DTD SVG 1.1//EN" "http://www.w3.org/Graphics/SVG/1.1/DTD/svg11.dtd"><svg t="1525790679657" class="icon" style="" viewBox="0 0 1024 1024" version="1.1" xmlns="http://www.w3.org/2000/svg" p-id="10540" xmlns:xlink="http://www.w3.org/1999/xlink" width="200" height="200"><defs><style type="text/css"></style></defs><path d="M668.416 35.84a509.568 509.568 0 0 0-345.408 11.904l345.408 346.688V35.84z" fill="#FA5452" p-id="10541"></path><path d="M668.416 1006.528l-4.928 4.992c1.664-0.576 3.2-1.408 4.928-2.048v-2.944z" fill="#E5E5E5" p-id="10542"></path><path d="M285.952 64.64c-46.08 23.68-89.408 54.656-128 93.248A510.912 510.912 0 0 0 50.112 317.312l489.344 0.896L285.952 64.64z" fill="#FF7612" p-id="10543"></path><path d="M972.288 750.976v7.04c0.832-1.664 1.28-3.328 2.048-4.864l-2.048-2.176z" fill="#E5E5E5" p-id="10544"></path><path d="M35.84 355.52a510.08 510.08 0 0 0 11.904 345.408l346.688-345.344H35.84z" fill="#FFC817" p-id="10545"></path><path d="M1006.592 355.52l4.928 4.928c-0.576-1.728-1.408-3.2-1.984-4.864l-2.944-0.064z" fill="#E5E5E5" p-id="10546"></path><path d="M64.704 737.984a509.12 509.12 0 0 0 252.672 235.904l0.832-489.408-253.504 253.504z" fill="#9AD122" p-id="10547"></path><path d="M751.04 51.648h6.976c-1.6-0.896-3.264-1.28-4.864-2.112l-2.112 2.112z" fill="#E5E5E5" p-id="10548"></path><path d="M355.584 988.096c49.344 15.808 101.76 24.64 156.352 24.64a510.4 510.4 0 0 0 188.992-36.608L355.584 629.632v358.464z" fill="#66D020" p-id="10549"></path><path d="M355.584 17.408l4.928-4.928c-1.728 0.512-3.2 1.408-4.864 1.984l-0.064 2.944z" fill="#E5E5E5" p-id="10550"></path><path d="M737.984 959.296a512.448 512.448 0 0 0 128-93.248 511.168 511.168 0 0 0 107.904-159.424l-489.344-0.896 253.44 253.568z" fill="#00B1FE" p-id="10551"></path><path d="M51.712 272.896v-6.976c-0.896 1.6-1.28 3.264-2.112 4.864l2.112 2.112z" fill="#E5E5E5" p-id="10552"></path><path d="M988.096 668.352c15.808-49.28 24.64-101.76 24.64-156.288a509.696 509.696 0 0 0-36.608-189.056l-346.496 345.344h358.464z" fill="#5283F0" p-id="10553"></path><path d="M17.408 668.352l-4.928-4.864c0.512 1.664 1.408 3.2 1.984 4.864h2.944z" fill="#E5E5E5" p-id="10554"></path><path d="M959.296 285.888a514.56 514.56 0 0 0-93.184-127.936A510.848 510.848 0 0 0 706.624 50.112l-0.896 489.344 253.568-253.568z" fill="#6467F0" p-id="10555"></path><path d="M272.896 972.288h-6.912c1.536 0.768 3.264 1.28 4.864 2.048l2.048-2.048z" fill="#E5E5E5" p-id="10556"></path></svg>