<?xml version="1.0" standalone="no"?><!DOCTYPE svg PUBLIC "-//W3C//DTD SVG 1.1//EN" "http://www.w3.org/Graphics/SVG/1.1/DTD/svg11.dtd"><svg t="1525790715801" class="icon" style="" viewBox="0 0 1024 1024" version="1.1" xmlns="http://www.w3.org/2000/svg" p-id="11785" xmlns:xlink="http://www.w3.org/1999/xlink" width="200" height="200"><defs><style type="text/css"></style></defs><path d="M698.735382 339.980178c32.475719 35.520317 45.668979 73.070367 45.668979 73.070367 9.133796 26.386521 39.072349 48.206145 66.981169 48.206145h166.945491c27.908821 0 48.206145-4.059465 45.161546-8.626363s-28.923687-31.968285-48.713578-51.758176L623.127849 49.221011c-19.789891-19.789891-39.579782-39.072349-43.639246-42.624381s-16.745292 11.163528-16.745293 39.072349v166.945491c0 27.908821 21.31219 58.354807 47.698712 67.996035 0 0 50.74331 18.775025 88.29336 59.369673z" fill="#0071BC" p-id="11786"></path><path d="M49.221011 400.872151c-19.789891 19.789891-39.072349 39.579782-42.624381 43.639246s11.163528 16.745292 39.072349 16.745293h166.945491c27.908821 0 58.354807-21.31219 67.996035-47.698712 0 0 18.267592-50.74331 59.369673-88.29336 35.520317-32.475719 73.070367-45.668979 73.070367-45.668979 26.386521-9.133796 48.206145-39.072349 48.206145-66.981169V45.668979c0-27.908821-4.059465-48.206145-8.626363-45.161546S420.154609 29.43112 400.872151 49.221011L49.221011 400.872151z" fill="#FBB03B" p-id="11787"></path><path d="M683.512389 698.735382c-35.520317 32.475719-73.070367 45.668979-73.070367 45.668979-26.386521 9.133796-48.206145 39.072349-48.206145 66.981169v166.945491c0 27.908821 4.059465 48.206145 8.626363 45.161546s31.968285-28.923687 51.758176-48.713578l351.65114-351.65114c19.789891-19.789891 39.072349-39.579782 42.624381-43.639246 3.552032-4.566898-11.163528-16.745292-39.072349-16.745293h-166.945491c-27.908821 0-58.354807 21.31219-67.996036 47.698712 0 0-18.267592 50.74331-59.369672 88.29336z" fill="#009245" p-id="11788"></path><path d="M325.264618 683.512389c-32.475719-35.520317-45.668979-73.070367-45.668979-73.070367-9.133796-26.386521-39.072349-48.206145-66.981169-48.206145H45.668979c-27.908821 0-48.206145 4.059465-45.161546 8.626363s28.923687 31.968285 48.713578 51.758176L400.872151 974.778989c19.789891 19.789891 39.579782 39.072349 43.639246 42.624381 4.566898 3.552032 16.745292-11.163528 16.745293-39.072349v-166.945491c0-27.908821-21.31219-58.354807-47.698712-67.996035 0-0.507433-50.74331-18.775025-88.29336-59.877106z" fill="#ED1C24" p-id="11789"></path></svg>