<?xml version="1.0" standalone="no"?><!DOCTYPE svg PUBLIC "-//W3C//DTD SVG 1.1//EN" "http://www.w3.org/Graphics/SVG/1.1/DTD/svg11.dtd"><svg t="1526402057277" class="icon" style="" viewBox="0 0 1024 1024" version="1.1" xmlns="http://www.w3.org/2000/svg" p-id="48271" xmlns:xlink="http://www.w3.org/1999/xlink" width="200" height="200"><defs><style type="text/css"></style></defs><path d="M877.897707 504.590142l-55.845777-202.954549c-7.532724-22.967796-34.488553-63.372358-79.685923-65.239925h-89.777337c-46.750604 1.927976-73.520086 41.894316-80.000256 65.365863l-55.777177 202.707792c-11.954885 44.266658 39.220951 61.57032 51.857744 19.985218l49.867311-187.020846h14.008799l-85.851761 328.529989h80.247013v246.909946c0 44.697714 60.764522 44.697714 60.764522 0v-246.909946h18.924473v246.909946c0 44.697714 58.766922 44.697714 58.766922 0v-246.909946h82.427888l-87.654823-328.529989h15.938823l49.988129 187.020846c12.332699 42.517862 63.257683 24.280417 51.80143-19.864399zM697.170685 219.833299c38.471467 0 69.538196-32.435663 69.538196-72.527941 0-40.031868-31.066729-72.528965-69.538196-72.528965-38.415154 0-69.48393 32.497096-69.48393 72.528965-0.001024 40.030845 31.068776 72.527941 69.48393 72.527941z" fill="#FF4159" p-id="48272"></path><path d="M339.938119 219.893708c40.41173 0.258019 73.19961-32.274913 73.19961-72.557634 0-40.025725-32.78788-72.559681-73.19961-72.559681-40.474187 0-73.197562 32.533956-73.197562 72.559681 0 40.089206 32.723375 72.557634 73.197562 72.557634z m73.328619 16.396499H266.481514c-55.266258 0-91.389956 48.28336-91.389956 94.203594v220.945238c0 42.847553 60.780905 42.847553 60.780904 0V347.144224h11.782873v555.564273c0 59.179548 82.418673 57.316077 84.338458 0V582.569248h15.696162V902.96754c3.391108 60.650871 84.340506 54.817796 84.340506-0.258019V347.144224h9.801654v204.234406c0 42.837314 62.696594 42.837314 62.696594 0V330.433391c0.122866-45.72979-36.120626-94.143184-91.261971-94.143184z" fill="#479CFF" p-id="48273"></path></svg>