<?xml version="1.0" standalone="no"?><!DOCTYPE svg PUBLIC "-//W3C//DTD SVG 1.1//EN" "http://www.w3.org/Graphics/SVG/1.1/DTD/svg11.dtd"><svg t="1525792330387" class="icon" style="" viewBox="0 0 1024 1024" version="1.1" xmlns="http://www.w3.org/2000/svg" p-id="12779" xmlns:xlink="http://www.w3.org/1999/xlink" width="200" height="200"><defs><style type="text/css"></style></defs><path d="M584.533333 366.933333L512 439.466667l-72.533333-72.533334c-17.066667-17.066667-38.4-25.6-59.733334-25.6-21.333333 0-42.666667 8.533333-59.733333 25.6-29.866667 29.866667-29.866667 85.333333 0 115.2l187.733333 187.733334 187.733334-187.733334c17.066667-17.066667 25.6-34.133333 25.6-59.733333s-8.533333-42.666667-25.6-59.733333c-25.6-29.866667-76.8-29.866667-110.933334 4.266666z" p-id="12780"></path><path d="M512 0C230.4 0 0 230.4 0 512s230.4 512 512 512 512-230.4 512-512S793.6 0 512 0z m251.733333 541.866667L512 789.333333l-251.733333-251.733333c-64-64-64-170.666667 0-234.666667s174.933333-64 234.666666 0l17.066667 17.066667 12.8-12.8c64-64 174.933333-64 234.666667 0 34.133333 29.866667 51.2 72.533333 51.2 115.2s-17.066667 85.333333-46.933334 119.466667z" p-id="12781"></path></svg>